PathFileType	4	(X/Y/Z)	./resultDataOpenSim/trcMotMarkerGrf/sub06/qtm-14-07.trc
DataRate	CameraRate	NumFrames	NumMarkers	Units	OrigDataRate	OrigDataStartFrame	OrigNumFrames
250.000000	250.000000	12	24	m	250.000000	66	527
Frame#	Time	L.Toe.Tip			R.Toe.Tip			L.Ankle.Lat			R.Ankle.Lat			L.Ankle.Med			R.Ankle.Med			L.Heel			R.Heel			L.Knee.Lat			R.Knee.Lat			L.Knee.Med			R.Knee.Med			L.Thigh.Upper			R.Thigh.Upper			L.ASIS			R.ASIS			V.Sacral			L.Acromium			R.Acromium			C7			L.Elbow			R.Elbow			L.Wrist.Lat			R.Wrist.Lat
		X1	Y1	Z1	X2	Y2	Z2	X3	Y3	Z3	X4	Y4	Z4	X5	Y5	Z5	X6	Y6	Z6	X7	Y7	Z7	X8	Y8	Z8	X9	Y9	Z9	X10	Y10	Z10	X11	Y11	Z11	X12	Y12	Z12	X13	Y13	Z13	X14	Y14	Z14	X15	Y15	Z15	X16	Y16	Z16	X17	Y17	Z17	X18	Y18	Z18	X19	Y19	Z19	X20	Y20	Z20	X21	Y21	Z21	X22	Y22	Z22	X23	Y23	Z23	X24	Y24	Z24

66	0.26	-1.4765196	0.062412303	-0.094162676	-0.75467407	0.036107122	0.093083929	-1.4582883	0.19366569	-0.11947216	-0.88964872	0.061707391	0.10902348	-1.4405281	0.19185059	-0.03777235	-0.8695585	0.078269646	0.021995206	-1.497624	0.25323572	-0.069012185	-0.94399828	0.037529597	0.045848481	-1.1150199	0.36422333	-0.13333429	-0.84453852	0.44486886	0.13324355	-1.11146	0.35104346	-0.016072951	-0.88057543	0.4291129	0.010484734	-1.0647333	0.75210989	-0.14715099	-1.0233726	0.77808425	0.19446953	-0.98060379	0.80077908	-0.10932892	-0.94399376	0.82548439	0.12753654	-1.1468359	0.89633623	0.036677346	-0.99700727	1.2999545	-0.14525143	-1.0154851	1.27381	0.21445684	-1.0789397	1.3280546	0.031950963	-1.0119624	0.9819215	-0.23231682	-1.151548	0.9855233	0.25153399	-0.81100545	0.83645733	-0.19850256	-1.0657147	0.76281519	0.29709235
67	0.264	-1.4660299	0.065250445	-0.093551715	-0.75469882	0.036062151	0.093136266	-1.4469614	0.19617349	-0.11907099	-0.88973235	0.061655368	0.10898908	-1.4283259	0.19468851	-0.037592251	-0.86941632	0.078345131	0.022073554	-1.4862707	0.25590995	-0.068347903	-0.94404291	0.037535001	0.045897382	-1.1030469	0.36438236	-0.13367598	-0.84168798	0.4443978	0.13428595	-1.09905	0.35128045	-0.016184958	-0.87764265	0.4290966	0.011315234	-1.057929	0.75349693	-0.14637912	-1.0172375	0.77930052	0.19499439	-0.97407574	0.80233469	-0.10857214	-0.93757078	0.82645932	0.12834582	-1.139829	0.89774092	0.03750356	-0.99096032	1.3012695	-0.14495515	-1.0087369	1.2751818	0.21482085	-1.072484	1.3295444	0.032512352	-1.0071024	0.98334064	-0.2321549	-1.1438951	0.98631641	0.25263778	-0.80700107	0.83677237	-0.1983569	-1.0562072	0.76420156	0.29814662
68	0.268	-1.4544759	0.067967242	-0.092893341	-0.75473617	0.036019657	0.093196069	-1.4354065	0.19859347	-0.11860706	-0.8898341	0.061582268	0.10897621	-1.4165839	0.1974323	-0.037123698	-0.86932063	0.078427041	0.022159411	-1.4751494	0.25844303	-0.068014145	-0.94409365	0.037546343	0.04595285	-1.0910224	0.36470229	-0.13401701	-0.83907309	0.44376492	0.13516939	-1.0867675	0.35176128	-0.016218755	-0.87502422	0.42904372	0.012140861	-1.0511789	0.75489332	-0.14558501	-1.0103717	0.78067939	0.19575941	-0.96762177	0.80396074	-0.10784671	-0.93132812	0.82745546	0.12912044	-1.1326492	0.89897803	0.038537013	-0.98496919	1.3026452	-0.14467857	-1.00201	1.2766166	0.21517315	-1.0660544	1.3310812	0.033064638	-1.0020757	0.98469807	-0.23141285	-1.136193	0.98721037	0.25376352	-0.80307271	0.83713635	-0.19823407	-1.0465918	0.76570469	0.29920891
69	0.272	-1.4420042	0.070483159	-0.092131182	-0.75478856	0.035981439	0.093261999	-1.4238079	0.20096833	-0.11802034	-0.88994525	0.061492422	0.10898637	-1.405439	0.20000893	-0.036307858	-0.86925711	0.078508665	0.022253692	-1.4640513	0.26085153	-0.068049577	-0.94415258	0.037564556	0.046014806	-1.0789475	0.36521437	-0.13434283	-0.83653304	0.44307892	0.13601795	-1.0745434	0.35248586	-0.01619728	-0.87267672	0.42895484	0.0129363	-1.0444561	0.7562856	-0.14473428	-1.0028857	0.78221525	0.19678084	-0.96121869	0.80564691	-0.10711844	-0.92520173	0.82847733	0.12987786	-1.1258334	0.90016882	0.039190904	-0.97903185	1.3040799	-0.14441303	-0.99531291	1.2781114	0.21551547	-1.0596568	1.3326539	0.033603178	-0.99710138	0.98606292	-0.23045617	-1.1284883	0.98817402	0.25488526	-0.79908676	0.8375537	-0.19808882	-1.0369478	0.76730439	0.30026854
70	0.276	-1.428782	0.072772896	-0.091245361	-0.75485808	0.035949966	0.093334445	-1.4120847	0.20325915	-0.11735268	-0.89006322	0.061400628	0.1090159	-1.394379	0.20250368	-0.035334133	-0.86920917	0.078585373	0.022356482	-1.4528127	0.26307122	-0.068263171	-0.9442187	0.03759368	0.046081772	-1.0668072	0.36592875	-0.13464849	-0.83404107	0.44247197	0.13690825	-1.0623354	0.35342926	-0.016130054	-0.87050442	0.42886524	0.013728687	-1.037773	0.75768802	-0.14385764	-0.99527502	0.78379942	0.19792575	-0.95484355	0.80738614	-0.10636367	-0.91915148	0.82953316	0.13064101	-1.1196986	0.90153128	0.039001652	-0.97314379	1.3055773	-0.14415036	-0.98865345	1.2796667	0.21584638	-1.053295	1.3342581	0.034122651	-0.99228313	0.98749338	-0.2295457	-1.1207998	0.98919416	0.25599187	-0.79495764	0.83802128	-0.19788696	-1.0273814	0.76897841	0.30131711
71	0.28	-1.4149795	0.074831362	-0.090257676	-0.75494583	0.035926732	0.093415409	-1.4000541	0.20537114	-0.11667361	-0.89019625	0.061322323	0.10906137	-1.3824188	0.20508598	-0.034567572	-0.86917039	0.078658217	0.022469387	-1.441365	0.26500387	-0.068368458	-0.94428974	0.037637564	0.046151922	-1.0545858	0.36683049	-0.13492754	-0.83160444	0.44197559	0.13777597	-1.0501158	0.35455516	-0.016019587	-0.86839161	0.428818	0.014539262	-1.0311914	0.7591335	-0.14305184	-0.98796872	0.78531165	0.19902155	-0.94849928	0.80916348	-0.10560577	-0.91317463	0.8306356	0.13143031	-1.114085	0.90313857	0.037879942	-0.96729913	1.3071407	-0.14388637	-0.98203584	1.2812829	0.21616242	-1.0469713	1.3358944	0.034615925	-0.9875902	0.98900972	-0.22873026	-1.1131343	0.99027038	0.25708081	-0.79075103	0.83853788	-0.19764139	-1.017976	0.77071103	0.30236506
72	0.284	-1.4007281	0.076643378	-0.089188218	-0.75504985	0.03591171	0.093506631	-1.3876822	0.20723192	-0.11599782	-0.8903545	0.061266567	0.10912477	-1.3692142	0.20773136	-0.034144177	-0.8691452	0.078733377	0.022593182	-1.429715	0.26659102	-0.068235873	-0.94436331	0.037694423	0.046223097	-1.0422958	0.36788625	-0.13516696	-0.8291983	0.44156614	0.13853942	-1.037873	0.35584017	-0.015877288	-0.86624239	0.42882417	0.015310091	-1.0247508	0.76064068	-0.1424	-0.98119848	0.78669979	0.19995504	-0.94221396	0.8109484	-0.10490677	-0.90727624	0.83178508	0.13225672	-1.1085436	0.90489518	0.036414048	-0.96149242	1.3087658	-0.14362407	-0.97546398	1.2829616	0.21646086	-1.0406853	1.3375632	0.035077349	-0.98297702	0.99060914	-0.22796844	-1.1055004	0.99140707	0.25814907	-0.78663156	0.83911005	-0.19740034	-1.0087344	0.77250716	0.30343019
73	0.288	-1.3861009	0.078184615	-0.088034905	-0.75516414	0.035903972	0.093607914	-1.3750448	0.20881438	-0.11531169	-0.89053609	0.061234714	0.10921253	-1.3555445	0.21014667	-0.0338009	-0.86914029	0.078818132	0.022726712	-1.4179041	0.26782094	-0.067894895	-0.94443584	0.037758296	0.046293628	-1.0299821	0.3690652	-0.13535355	-0.82685548	0.44123819	0.13921167	-1.0256094	0.35727252	-0.015723855	-0.86402977	0.42886955	0.015960344	-1.018415	0.76219915	-0.14190638	-0.97522802	0.78797122	0.20068768	-0.93600779	0.81270896	-0.10431922	-0.90144807	0.83296285	0.13311548	-1.1026941	0.90668023	0.035466662	-0.95572021	1.3104411	-0.1433697	-0.96894018	1.2847032	0.2167436	-1.0344353	1.3392608	0.035506244	-0.97845062	0.99228474	-0.22723815	-1.0979014	0.99260459	0.25919155	-0.78274184	0.83973536	-0.1972114	-0.99951726	0.77440825	0.30450986
74	0.292	-1.3711687	0.079445097	-0.086830613	-0.75528142	0.035901648	0.093717965	-1.3621959	0.21011187	-0.11459589	-0.8907255	0.061221657	0.10932734	-1.3421408	0.21210672	-0.033285296	-0.86915912	0.07891655	0.022869646	-1.4059659	0.26870331	-0.067380318	-0.94450285	0.037827403	0.046364409	-1.0176889	0.37035493	-0.13547869	-0.82473124	0.44098235	0.13986513	-1.0133026	0.35883985	-0.01557523	-0.86183538	0.42895186	0.0165015	-1.0121252	0.76379777	-0.14152218	-0.9704292	0.78912293	0.20118941	-0.92987308	0.81443168	-0.10385463	-0.89567366	0.83414961	0.13399831	-1.0964503	0.90844287	0.035331394	-0.94997927	1.3121556	-0.14312482	-0.96245984	1.2865029	0.21701527	-1.0282196	1.3409824	0.035905886	-0.97406241	0.99403476	-0.2265692	-1.0903161	0.99385494	0.2602153	-0.77913104	0.84039666	-0.19709806	-0.99013064	0.77646476	0.3055812
75	0.296	-1.3560436	0.080442502	-0.085674144	-0.75539636	0.035901623	0.093835457	-1.3491316	0.21112204	-0.11381777	-0.89090199	0.061218923	0.10946149	-1.3289565	0.21362916	-0.032607287	-0.86920231	0.07902685	0.023024317	-1.3939065	0.26925858	-0.066679042	-0.94456167	0.037906057	0.04643692	-1.005431	0.37175898	-0.1355397	-0.8230016	0.44076467	0.14052285	-1.0009093	0.36052509	-0.015434765	-0.85978872	0.42908464	0.017013599	-1.0058514	0.76544453	-0.14118242	-0.96686618	0.79012377	0.20144996	-0.9237837	0.81612171	-0.10348687	-0.88994494	0.83534699	0.13490916	-1.0899714	0.91018709	0.035693149	-0.9442668	1.3139044	-0.14288646	-0.95601061	1.2883532	0.21727669	-1.0220343	1.342725	0.036279863	-0.9698407	0.99585011	-0.2259922	-1.0826891	0.99514941	0.26126387	-0.77572742	0.84108006	-0.19704995	-0.98050993	0.77868544	0.30662922
76	0.3	-1.3408199	0.081210983	-0.08464948	-0.75550732	0.035901698	0.093957158	-1.3358616	0.21186109	-0.11296589	-0.89104944	0.061219531	0.1096021	-1.3157551	0.2148127	-0.031863741	-0.86926784	0.079144041	0.023193241	-1.3816981	0.26950262	-0.065806387	-0.94461334	0.037994577	0.046511167	-0.99321136	0.37329555	-0.13554015	-0.82165098	0.44057416	0.14108436	-0.98845661	0.36231563	-0.015285958	-0.85793444	0.42927189	0.017530341	-0.99957634	0.76715257	-0.14078726	-0.96393345	0.79100069	0.20158847	-0.91770931	0.81779093	-0.10316663	-0.8842668	0.83657753	0.13585876	-1.0834847	0.91190815	0.036229704	-0.9385793	1.3156862	-0.14265066	-0.94957956	1.2902466	0.2175265	-1.0158716	1.3444848	0.036630686	-0.96570404	0.99769588	-0.22546319	-1.0749553	0.99649276	0.26241087	-0.77239355	0.84178446	-0.19703737	-0.9707362	0.78104109	0.30765894
77	0.304	-1.3255103	0.081778963	-0.083766317	-0.7556159	0.035902981	0.094076653	-1.3224839	0.21236318	-0.11207534	-0.89116545	0.061220784	0.10974321	-1.3024861	0.21571883	-0.031110222	-0.86934709	0.079266599	0.023375743	-1.3692973	0.26945269	-0.06487256	-0.9446609	0.038084665	0.046588051	-0.98104312	0.37498661	-0.13548797	-0.82049565	0.4404387	0.14144454	-0.97607598	0.36422642	-0.01507479	-0.8562141	0.42950142	0.018024575	-0.99327342	0.76892778	-0.14018785	-0.96066342	0.79189795	0.20182183	-0.91162581	0.81945458	-0.10284235	-0.87864966	0.83786402	0.13685236	-1.0771986	0.91356459	0.036893651	-0.93290892	1.3175003	-0.14241089	-0.94316093	1.2921765	0.21776506	-1.0097233	1.3462544	0.036960132	-0.96146917	0.99952783	-0.22487365	-1.0670923	0.99790752	0.26370964	-0.76904119	0.84251733	-0.19704212	-0.96091145	0.78350462	0.30868129
